<svg xmlns="http://www.w3.org/2000/svg" viewBox="0 0 512 512">
  <defs>
    <linearGradient id="g" x1="0" y1="0" x2="1" y2="1">
      <stop offset="0%" stop-color="#2563eb"/>
      <stop offset="50%" stop-color="#7c3aed"/>
      <stop offset="100%" stop-color="#06b6d4"/>
    </linearGradient>
  </defs>
  <rect width="512" height="512" rx="112" fill="url(#g)"/>
  <path fill="#fff" d="M256 104c8 0 15 4 19 11l34 58 66 9c17 2 24 24 12 36l-48 47 11 65c2 16-14 29-29 22l-59-31-59 31c-15 8-31-6-29-22l11-65-48-47c-12-12-5-34 12-36l66-9 34-58c4-7 11-11 19-11z"/>
</svg>
